<svg xmlns="http://www.w3.org/2000/svg" width="21" height="24" viewBox="0 0 21 24">
    <path fill="#FFF" fill-rule="evenodd" d="M18.938 19.573a2.462 2.462 0 0 1-2.46 2.46H4.658a2.462 2.462 0 0 1-2.46-2.46V5.728c0-.24.196-.435.437-.435h3.093v1.354A1.37 1.37 0 1 0 7.88 7.772c0-.465-.235-.877-.592-1.125V5.293h6.182v1.336a1.37 1.37 0 0 0 .754 2.516c.757 0 1.372-.616 1.372-1.373 0-.453-.224-.854-.565-1.103V5.293h3.471c.24 0 .436.195.436.435v13.845zM10.379 1.788c1.299 0 2.41.806 2.867 1.944H7.512a3.094 3.094 0 0 1 2.867-1.944zm8.123 1.944h-3.62A4.656 4.656 0 0 0 10.379.227a4.656 4.656 0 0 0-4.502 3.505H2.634A2 2 0 0 0 .637 5.728v13.845a4.025 4.025 0 0 0 4.02 4.021h11.822a4.025 4.025 0 0 0 4.02-4.02V5.727a1.999 1.999 0 0 0-1.997-1.996z"/>
</svg>
