<svg xmlns="http://www.w3.org/2000/svg" xmlns:xlink="http://www.w3.org/1999/xlink" width="26" height="17" viewBox="0 0 26 17">
    <defs>
        <path id="a" d="M0 0h24.58v16.018H0z"/>
    </defs>
    <g fill="none" fill-rule="evenodd">
        <g transform="translate(.634 .549)">
            <mask id="b" fill="#fff">
                <use xlink:href="#a"/>
            </mask>
            <path fill="#8C95A0" d="M21.775 14.605H2.805a1.393 1.393 0 0 1-1.392-1.392V7.538h21.754v5.675c0 .768-.625 1.392-1.392 1.392zM2.805 1.413h18.97c.767 0 1.392.625 1.392 1.392v.493H1.413v-.493c0-.767.625-1.392 1.392-1.392zM1.413 6.125h21.753V4.71H1.413v1.414zM21.775 0H2.805A2.809 2.809 0 0 0 0 2.805v10.408a2.809 2.809 0 0 0 2.805 2.805h18.97a2.809 2.809 0 0 0 2.805-2.805V2.805A2.809 2.809 0 0 0 21.775 0z" mask="url(#b)"/>
        </g>
        <path fill="#8C95A0" d="M9.35 11.385H5.11a.707.707 0 1 0 0 1.413h4.24a.707.707 0 1 0 0-1.413"/>
    </g>
</svg>
