<svg xmlns="http://www.w3.org/2000/svg" xmlns:xlink="http://www.w3.org/1999/xlink" width="47" height="24" viewBox="0 0 47 24">
    <defs>
        <path id="a" d="M.582.316h50v40h-50z"/>
    </defs>
    <g fill="none" fill-rule="evenodd" transform="translate(-2.213 -8.33)">
        <mask id="b" fill="#fff">
            <use xlink:href="#a"/>
        </mask>
        <path fill="#442A70" d="M44.335 26.58h-.99a5.182 5.182 0 0 0-5.728-4.587 5.178 5.178 0 0 0-4.588 4.588H17.602a5.182 5.182 0 0 0-5.728-4.588 5.179 5.179 0 0 0-4.589 4.588H6.82c-1.225 0-2.178-1.019-2.178-2.243v-2.663c-.01-1 .655-1.869 1.617-2.14l7.279-1.99a.914.914 0 0 0 .496-.337l4.354-5.708a3.302 3.302 0 0 1 2.606-1.271h13.774a3.22 3.22 0 0 1 2.766 1.513l3.383 5.401c.092.159.242.28.4.355l3.907 1.785a2.2 2.2 0 0 1 1.28 2.018v3.037h.01c0 1.224-.954 2.243-2.178 2.243m-6.148 3.868a3.318 3.318 0 1 1 3.317-3.317c.01 1.822-1.476 3.308-3.317 3.317m-25.743 0a3.318 3.318 0 1 1 0-6.635 3.318 3.318 0 0 1 0 6.635m33.564-12.867l-3.663-1.672-3.233-5.158a5.094 5.094 0 0 0-4.345-2.392H20.993a5.136 5.136 0 0 0-4.083 2.01l-4.177 5.465-6.96 1.906a4.081 4.081 0 0 0-2.991 3.934v2.663c0 2.252 1.794 4.112 4.046 4.112h.598a5.187 5.187 0 0 0 6.326 3.719 5.186 5.186 0 0 0 3.719-3.72h15.698a5.188 5.188 0 0 0 6.326 3.72 5.188 5.188 0 0 0 3.72-3.72h1.12c2.253 0 4.046-1.859 4.046-4.11V21.3a4.072 4.072 0 0 0-2.373-3.719" mask="url(#b)"/>
    </g>
</svg>
