<svg xmlns="http://www.w3.org/2000/svg" xmlns:xlink="http://www.w3.org/1999/xlink" width="80" height="132" viewBox="0 0 80 132">
    <defs>
        <path id="a" d="M0 0h79.07v94.884H0z"/>
    </defs>
    <g fill="none" fill-rule="evenodd">
        <g transform="translate(.861 36.28)">
            <mask id="b" fill="#fff">
                <use xlink:href="#a"/>
            </mask>
            <path fill="#B8C0C9" d="M76.28 84.096c0 4.41-3.587 7.997-7.997 7.997H10.789c-4.41 0-7.997-3.588-7.997-7.997V18.605H76.28v65.491zM71.63 13.704l2.375 2.11h-2.375v-2.11zm4.651.4l-4.42-3.927a.663.663 0 0 1-.03-.97l4.45-4.449v9.346zM7.258 9.23a.633.633 0 0 1-.028.927l-4.438 3.942V4.764L7.258 9.23zm-2.195 6.584l2.38-2.115v2.115h-2.38zm35.606 0c.174-.147.354-.297.541-.458a.468.468 0 0 0 .049-.658.467.467 0 0 0-.657-.047c-.53.456-1 .84-1.41 1.163H10.235V9.768c0-.024-.006-.047-.008-.07a3.435 3.435 0 0 0-.995-2.442L4.765 2.791h45.48a34.1 34.1 0 0 1-1.224 2.15.468.468 0 0 0 .395.712.466.466 0 0 0 .395-.22 35.469 35.469 0 0 0 1.481-2.642h23.01l-4.444 4.444c-.6.598-.94 1.404-.989 2.244-.02.094-.03.19-.03.289v6.046h-28.17zM78.196.103l-.002-.001A1.39 1.39 0 0 0 77.676 0H1.396c-.18 0-.35.037-.508.099L.866.105a1.404 1.404 0 0 0-.76.76C.103.871.103.878.1.886A1.4 1.4 0 0 0 0 1.396v15.712c-.003.033 0 .067 0 .1v66.888c0 5.949 4.84 10.788 10.788 10.788h57.494c5.949 0 10.788-4.84 10.788-10.788V1.396c0-.586-.363-1.087-.875-1.293z" mask="url(#b)"/>
        </g>
        <path fill="#B8C0C9" d="M56.9 69.787c.138-.885.23-1.785.23-2.707a1.384 1.384 0 1 0-2.769 0c0 .878-.09 1.733-.238 2.57a2.985 2.985 0 0 1-1.482-2.57 2.999 2.999 0 0 1 2.997-2.997 2.998 2.998 0 0 1 2.994 2.997c0 1.2-.713 2.228-1.732 2.707M20.48 67.08a2.998 2.998 0 0 1 2.995-2.997 2.999 2.999 0 0 1 2.996 2.997 2.99 2.99 0 0 1-1.38 2.515c-.143-.82-.231-1.656-.231-2.515a1.384 1.384 0 1 0-2.77 0c0 .943.097 1.863.24 2.766a2.997 2.997 0 0 1-1.85-2.766m35.158-4.857a4.862 4.862 0 0 0-4.857 4.857c0 1.98 1.193 3.68 2.897 4.435C51.79 77.488 46.199 81.83 39.61 81.83c-6.607 0-12.213-4.365-14.086-10.363 1.653-.777 2.807-2.444 2.807-4.387a4.862 4.862 0 0 0-4.857-4.857 4.861 4.861 0 0 0-4.856 4.857c0 2.437 1.81 4.44 4.153 4.785C24.862 79.203 31.61 84.6 39.61 84.6c8.003 0 14.756-5.402 16.842-12.747 2.288-.39 4.04-2.374 4.04-4.773a4.861 4.861 0 0 0-4.855-4.857M68.77 3.72A1.861 1.861 0 1 0 68.767 0a1.861 1.861 0 0 0 .001 3.722M54.131 21.998c.053.35.1.709.146 1.077.104.85.166 1.713.183 2.565a.466.466 0 0 0 .465.455h.01a.464.464 0 0 0 .456-.474 26.271 26.271 0 0 0-.191-2.659 32.42 32.42 0 0 0-.15-1.104.465.465 0 1 0-.919.14M54.147 30.188a26.963 26.963 0 0 1-.824 3.56.466.466 0 0 0 .89.27 28.03 28.03 0 0 0 .853-3.683.466.466 0 0 0-.386-.533.47.47 0 0 0-.533.386M58.173 16.523c.097 0 .196-.03.28-.094a25.357 25.357 0 0 0 2.844-2.5.465.465 0 1 0-.663-.652 24.508 24.508 0 0 1-2.741 2.41.465.465 0 0 0 .28.836M63.921 10.48c.147 0 .292-.07.383-.2a26.258 26.258 0 0 0 1.933-3.262.466.466 0 0 0-.834-.412 25.603 25.603 0 0 1-1.864 3.145.464.464 0 0 0 .382.73M47.22 44.97a43.55 43.55 0 0 1-2.422 2.777.464.464 0 0 0 .338.785c.123 0 .246-.05.337-.145a43.982 43.982 0 0 0 2.473-2.836.465.465 0 1 0-.726-.581M53.146 17.53a.465.465 0 1 0 .889-.275c-.411-1.325-.91-2.506-1.48-3.512a.464.464 0 1 0-.808.46c.536.946 1.008 2.067 1.4 3.328M46.109 20.846h.028a.465.465 0 0 0 .03-.929c-1.29-.08-2.382-.434-3.244-1.054a.465.465 0 1 0-.544.757c1.008.723 2.263 1.135 3.73 1.226M40.452 15.77c.017 0 .032-.002.048-.003a.464.464 0 0 0 .415-.51 5.54 5.54 0 0 1-.026-.54c0-1.036.299-2.014.8-2.616a.466.466 0 0 0-.064-.686.465.465 0 0 0-.628.064l-.017.018c-.649.776-1.021 1.95-1.021 3.22 0 .21.01.42.032.635.023.239.226.417.46.417M45.485 10.285a5.633 5.633 0 0 1 3.301.731.46.46 0 0 0 .634-.169.464.464 0 0 0-.169-.635 6.593 6.593 0 0 0-3.846-.853.466.466 0 0 0-.423.503.47.47 0 0 0 .503.423M50.727 20.245a.456.456 0 0 0 .127-.017 23.073 23.073 0 0 0 3.549-1.34.463.463 0 0 0 .219-.62.463.463 0 0 0-.62-.22 22.152 22.152 0 0 1-3.401 1.285.464.464 0 0 0 .126.912"/>
    </g>
</svg>
