<svg xmlns="http://www.w3.org/2000/svg" xmlns:xlink="http://www.w3.org/1999/xlink" width="20" height="25" viewBox="0 0 20 25">
    <defs>
        <path id="a" d="M0 .4h18.958v23.906H0z"/>
    </defs>
    <g fill="none" fill-rule="evenodd">
        <g transform="translate(.554 -.213)">
            <mask id="b" fill="#fff">
                <use xlink:href="#a"/>
            </mask>
            <path fill="#8C95A0" d="M9.48 2.136c-4.27 0-7.744 3.474-7.744 7.743 0 6.398 7.392 12.548 7.467 12.61.133.11.418.11.553 0 .073-.062 7.466-6.212 7.466-12.61 0-4.27-3.474-7.743-7.743-7.743m0 22.17c-.496 0-.991-.159-1.378-.475C7.771 23.559 0 17.1 0 9.879 0 4.652 4.252.4 9.48.4c5.225 0 9.478 4.252 9.478 9.479 0 7.223-7.77 13.68-8.102 13.952a2.177 2.177 0 0 1-1.377.475" mask="url(#b)"/>
        </g>
        <path fill="#8C95A0" d="M10.033 6.202A3.468 3.468 0 0 0 6.57 9.665a3.468 3.468 0 0 0 3.464 3.465 3.468 3.468 0 0 0 3.464-3.465 3.467 3.467 0 0 0-3.464-3.463m0 8.664a5.207 5.207 0 0 1-5.2-5.2c0-2.868 2.333-5.2 5.2-5.2s5.2 2.332 5.2 5.2c0 2.867-2.333 5.2-5.2 5.2"/>
    </g>
</svg>
