<svg xmlns="http://www.w3.org/2000/svg" xmlns:xlink="http://www.w3.org/1999/xlink" width="34" height="33" viewBox="0 0 34 33">
    <defs>
        <path id="a" d="M.651.21h50v40h-50z"/>
    </defs>
    <g fill="none" fill-rule="evenodd" transform="translate(-8.329 -3.97)">
        <mask id="b" fill="#fff">
            <use xlink:href="#a"/>
        </mask>
        <path fill="#CACED3" d="M39.922 17.65c0 1.396-1.262 2.528-2.818 2.528h-.162c-1.174 0-2.18-.643-2.604-1.56a.229.229 0 0 0-.214-.13.229.229 0 0 0-.213.13c-.424.917-1.43 1.56-2.606 1.56h-.16c-1.175 0-2.182-.643-2.605-1.56a.23.23 0 0 0-.214-.13.23.23 0 0 0-.213.13c-.424.917-1.43 1.56-2.605 1.56h-.161c-1.175 0-2.182-.643-2.605-1.56a.23.23 0 0 0-.214-.13.23.23 0 0 0-.213.13c-.423.917-1.43 1.56-2.606 1.56h-.16c-1.175 0-2.182-.643-2.605-1.56a.229.229 0 0 0-.213-.13.229.229 0 0 0-.214.13c-.423.917-1.43 1.56-2.605 1.56h-.161c-1.556 0-2.818-1.132-2.818-2.527v-2.376c0-.195.049-.388.142-.564l4.372-8.23c.243-.457.757-.748 1.322-.748h17.169c.558 0 1.066.285 1.313.734l4.52 8.238c.1.18.151.378.151.579v2.367zm-2.03 4.198l.054-.007-.053.007zM36.394 34.56H14.461c-.13 0-.238-.094-.238-.212v-3.694h22.408v3.694c0 .118-.107.212-.238.212zM12.91 21.84l.053.008-.053-.007zm23.722 6.931H14.223V21.89c.923-.054 1.79-.332 2.508-.805a5.12 5.12 0 0 0 2.819.827h.16c1.04 0 2.02-.3 2.818-.827a5.116 5.116 0 0 0 2.819.827h.161c1.04 0 2.02-.3 2.818-.827a5.117 5.117 0 0 0 2.82.827h.16c1.04 0 2.02-.3 2.818-.827.718.473 1.585.751 2.507.805v6.881zm4.875-14.832L36.986 5.7C36.408 4.651 35.241 4 33.937 4H16.769c-1.303 0-2.506.682-3.067 1.736L9.33 13.964A2.81 2.81 0 0 0 9 15.275v2.376c0 1.845 1.317 3.415 3.15 4.007v8.001c0 .02-.012.034-.012.054 0 .019.011.035.012.053v4.582c0 1.144 1.037 2.073 2.311 2.073h21.932c1.275 0 2.312-.93 2.312-2.073v-12.69c1.833-.592 3.15-2.162 3.15-4.007v-2.367c0-.464-.12-.93-.349-1.345z" mask="url(#b)"/>
    </g>
</svg>
