<svg xmlns="http://www.w3.org/2000/svg" xmlns:xlink="http://www.w3.org/1999/xlink" width="27" height="32" viewBox="0 0 27 32">
    <defs>
        <path id="a" d="M0 0h26.468v31.137H0z"/>
    </defs>
    <g fill="none" fill-rule="evenodd" transform="translate(.206)">
        <mask id="b" fill="#fff">
            <use xlink:href="#a"/>
        </mask>
        <path fill="#442A70" d="M24.388 25.78a3.281 3.281 0 0 1-3.277 3.277H5.357A3.281 3.281 0 0 1 2.08 25.78V7.33c0-.32.26-.58.581-.58h4.122v1.804a1.827 1.827 0 0 0 1.04 3.329 1.83 1.83 0 0 0 1.83-1.829c0-.62-.314-1.169-.79-1.5V6.75h8.238v1.78a1.826 1.826 0 0 0 1.005 3.353 1.822 1.822 0 1 0 1.075-3.3V6.75h4.626c.32 0 .58.26.58.58v18.45zM12.982 2.08a4.123 4.123 0 0 1 3.821 2.59H9.162a4.123 4.123 0 0 1 3.82-2.59zm10.825 2.59h-4.825c-.683-2.68-3.11-4.67-6-4.67-2.889 0-5.316 1.99-6 4.67h-4.32A2.664 2.664 0 0 0 0 7.33v18.45a5.364 5.364 0 0 0 5.357 5.358h15.754a5.364 5.364 0 0 0 5.357-5.358V7.33a2.663 2.663 0 0 0-2.66-2.66z" mask="url(#b)"/>
    </g>
</svg>
