<svg xmlns="http://www.w3.org/2000/svg" width="174" height="148" viewBox="0 0 174 148">
    <g fill="none" fill-rule="nonzero" transform="translate(0 -.363)">
        <path fill="#F8F8FF" d="M87.496 147.112c16.036 2.427 24.602-6.58 35.68-20.53 16.507-20.801 27.962-8.54 44.324-28.595 14.41-17.664-1.226-29.333-9.763-30.094-32.08-2.822-11.463-35.957-32.152-35.555C73.32 33.348 111.473-.124 78.102.731 50.525 1.462-9.343 57.847 2.178 96.65c16.333 54.974 58.575-22.234 65.747 6.5 4.356 17.393 7.499 42.135 19.6 43.963h-.029z"/>
        <path fill="#4A49CA" d="M146.84 59.617c-.065.499-.185.989-.355 1.462l-19.6 55.077c-1.327 3.745-5.195 5.93-9.06 5.117l-91.64-22.767c-.204-.051-.4-.11-.596-.176-.511 3.182 1.509 6.22 4.624 6.954L121.854 128c3.867.813 7.737-1.372 9.067-5.118l19.6-55.076c1.249-3.525-.385-7.078-3.673-8.226" opacity=".212"/>
        <path fill="#5955FF" d="M80.738 73.845l-4.13-.987a1.298 1.298 0 0 0-1.453.848l-1.452 4.175c-.104.275-.083.582.056.84.14.259.385.443.67.505l4.13.98a1.29 1.29 0 0 0 1.453-.841l1.452-4.175a1.015 1.015 0 0 0-.057-.84 1.003 1.003 0 0 0-.67-.505M63.316 90.149a1.454 1.454 0 0 1-.907-.746 1.472 1.472 0 0 1-.065-1.177l.334-.943a1.806 1.806 0 0 1 2.076-1.17l28.833 7.15c.395.108.726.378.912.744.187.366.211.794.068 1.18l-.333.943a1.835 1.835 0 0 1-2.084 1.17l-28.834-7.151m22.932-5.257a.995.995 0 0 1-.677-.505 1.008 1.008 0 0 1-.049-.847l.588-1.682a1.284 1.284 0 0 1 1.452-.855l1.663.394h.043c.292.065.542.255.682.522.14.266.156.58.044.86l-.58 1.674a1.298 1.298 0 0 1-1.452.827l-1.656-.417m5.22-2.968a1.003 1.003 0 0 1-.67-.505 1.015 1.015 0 0 1-.056-.84l.58-1.682a1.32 1.32 0 0 1 1.453-.841l1.633.373c.292.064.541.255.681.521s.156.581.045.86l-.574 1.675c-.216.599-.829.954-1.452.84l-1.618-.394m-3.811-13.468l1.662.388a1.29 1.29 0 0 0 1.452-.841l.58-1.674a1.291 1.291 0 0 1 1.452-.848l1.692.453c.273.077.502.268.628.524.126.257.138.555.032.821l-.566 1.645c-.104.278-.084.588.055.85.14.261.384.45.671.517l1.662.388c.285.064.528.249.667.506.139.258.16.564.06.84l-.581 1.68c-.223.595-.83.949-1.452.849l-1.626-.395a1.313 1.313 0 0 0-1.452.856l-.574 1.667c-.216.598-.829.953-1.452.84l-1.618-.394a.995.995 0 0 1-.674-.503c-.14-.26-.159-.568-.052-.843l.566-1.689a1.015 1.015 0 0 0-.056-.84 1.003 1.003 0 0 0-.67-.505l-1.757-.344a1.284 1.284 0 0 0-1.452.841l-.573 1.682c-.104.276-.084.584.056.843.14.26.384.446.67.51l1.633.394c.287.06.534.244.674.503.14.26.159.568.052.843l-.566 1.732c-.214.602-.827.96-1.452.848l-1.67-.394a1.29 1.29 0 0 0-1.451.84l-.574 1.66c-.213.602-.827.96-1.452.848l-2.758-.658-3.782-.87-2.759-.658a.995.995 0 0 1-.677-.505 1.008 1.008 0 0 1-.049-.847l.944-2.786 1.292-3.882.958-2.779a1.276 1.276 0 0 1 1.452-.84l2.81.65 2.75.65a1.291 1.291 0 0 0 1.453-.847l.922-2.822.95-2.771c.216-.601.827-.96 1.452-.856l1.64.388c.283.075.52.269.65.532.131.263.143.57.033.842l-.58 1.682c-.094.27-.069.568.07.819.139.25.378.428.655.49M76.222 65.75a1.018 1.018 0 0 1-.651-.544 1.03 1.03 0 0 1-.017-.852l.951-2.779.959-2.778a1.312 1.312 0 0 1 1.452-.826l2.729.658 2.751.658c.286.063.531.25.67.509.14.26.16.567.056.843l-.58 1.682a1.32 1.32 0 0 1-1.452.84l-1.641-.387a1.276 1.276 0 0 0-1.452.841l-.588 1.682c-.213.602-.827.96-1.452.848l-1.735-.395m12.806-1.162a1.026 1.026 0 0 1-.636-.548 1.038 1.038 0 0 1-.018-.842l.567-1.652a1.29 1.29 0 0 1 1.451-.826l1.612.373c.287.065.531.252.67.513.14.261.16.57.056.847l-.58 1.681a1.29 1.29 0 0 1-1.453.841l-1.64-.38m7.687 1.791a1.017 1.017 0 0 1-.677-.519 1.03 1.03 0 0 1-.049-.855l.574-1.66c.211-.602.83-.957 1.452-.834l1.662.388h.058c.283.064.524.248.663.504s.162.56.063.834l-.58 1.682c-.217.598-.83.953-1.453.84l-1.655-.387h-.043m45.465-13.738l-91.641-22.71c-3.868-.806-7.736 1.376-9.075 5.119l-19.6 55.076a6.278 6.278 0 0 0 .09 4.904 6.21 6.21 0 0 0 3.584 3.321c.196.066.392.125.595.176l91.655 22.694c3.866.812 7.733-1.372 9.06-5.118l19.6-55.076c.17-.473.29-.963.356-1.462.494-3.171-1.522-6.19-4.624-6.924"/>
        <path fill="#FFF" d="M89.289 81.42h-.044l-1.662-.396a1.284 1.284 0 0 0-1.452.856l-.588 1.681c-.109.276-.091.587.05.848.14.26.387.446.676.505l1.655.417a1.298 1.298 0 0 0 1.452-.826l.58-1.675a1.03 1.03 0 0 0-.044-.86 1.017 1.017 0 0 0-.681-.521M94.465 78.436l-1.633-.373a1.32 1.32 0 0 0-1.452.841l-.581 1.682c-.104.275-.083.582.056.84.14.259.384.443.67.505l1.619.395a1.298 1.298 0 0 0 1.452-.84l.573-1.675a1.03 1.03 0 0 0-.045-.86 1.017 1.017 0 0 0-.68-.522M74.393 79.226a1.003 1.003 0 0 1-.67-.505 1.015 1.015 0 0 1-.056-.84l1.452-4.175c.213-.602.827-.96 1.452-.848l4.152.987c.286.062.53.246.67.504.14.259.16.566.056.841l-1.452 4.175a1.29 1.29 0 0 1-1.452.84l-4.13-.98m18.504-13.752a1.291 1.291 0 0 0-1.452.848l-.581 1.675a1.29 1.29 0 0 1-1.452.84l-1.662-.387a.995.995 0 0 1-.655-.49 1.008 1.008 0 0 1-.071-.819l.58-1.681a1.03 1.03 0 0 0-.032-.843 1.018 1.018 0 0 0-.65-.532l-1.64-.387a1.313 1.313 0 0 0-1.452.855l-.951 2.771-.922 2.822a1.291 1.291 0 0 1-1.452.848l-2.751-.65-2.81-.651a1.276 1.276 0 0 0-1.451.84l-.959 2.779-1.292 3.882-.943 2.786c-.11.276-.092.586.048.847s.389.446.677.506l2.759.658 3.782.87 2.759.658a1.298 1.298 0 0 0 1.451-.848l.574-1.66a1.29 1.29 0 0 1 1.452-.841l1.67.395a1.298 1.298 0 0 0 1.451-.848l.566-1.733a1.008 1.008 0 0 0-.052-.843.995.995 0 0 0-.673-.502l-1.634-.395a1.01 1.01 0 0 1-.67-.51c-.14-.259-.16-.567-.056-.843L85 73.21c.212-.57.789-.913 1.386-.827l1.663.395c.285.062.53.246.67.505.139.258.16.566.056.84l-.567 1.69c-.106.274-.087.583.053.842.14.26.386.443.673.503l1.62.395a1.298 1.298 0 0 0 1.451-.841l.573-1.667c.216-.6.827-.96 1.452-.856l1.626.395c.623.1 1.23-.254 1.452-.848l.581-1.682c.101-.275.08-.58-.06-.838a1.01 1.01 0 0 0-.666-.507l-1.662-.387a1.025 1.025 0 0 1-.67-.518 1.038 1.038 0 0 1-.056-.85l.566-1.645a1.016 1.016 0 0 0-.033-.82 1.004 1.004 0 0 0-.628-.525l-1.56-.49M99.793 62.914h-.058l-1.662-.387a1.276 1.276 0 0 0-1.452.833l-.574 1.66a1.03 1.03 0 0 0 .049.856c.14.264.387.454.677.518h.044l1.655.388a1.298 1.298 0 0 0 1.452-.84l.58-1.682a1.023 1.023 0 0 0-.062-.835 1.01 1.01 0 0 0-.663-.503M92.04 61.086l-1.611-.402a1.29 1.29 0 0 0-1.452.826l-.566 1.653c-.114.27-.107.576.018.842.124.265.356.464.635.547l1.64.38a1.29 1.29 0 0 0 1.452-.84l.581-1.682a1.03 1.03 0 0 0-.055-.847 1.017 1.017 0 0 0-.67-.513M84.418 59.288l-2.751-.658-2.73-.658a1.312 1.312 0 0 0-1.452.826l-.958 2.778-.944 2.764a1.03 1.03 0 0 0 .017.852c.128.268.366.467.651.544l1.648.395a1.298 1.298 0 0 0 1.452-.848l.588-1.682a1.276 1.276 0 0 1 1.452-.84l1.64.387a1.32 1.32 0 0 0 1.452-.84l.581-1.682a1.023 1.023 0 0 0-.056-.844 1.01 1.01 0 0 0-.67-.509M93.601 93.271l-28.834-7.15a1.806 1.806 0 0 0-2.076 1.17l-.334.942c-.143.385-.12.812.066 1.178.185.365.514.636.907.745l28.863 7.15c.885.18 1.769-.316 2.083-1.169l.334-.943a1.472 1.472 0 0 0-.068-1.18 1.454 1.454 0 0 0-.912-.743"/>
        <g fill="#49EDB4" opacity=".27">
            <path d="M41.937 10.653c-9.532 1.345-17.255 10.842-17.255 21.203 0 10.36 7.65 17.671 17.182 16.326 9.532-1.345 17.277-10.85 17.292-21.203.014-10.353-7.688-17.679-17.22-16.326"/>
        </g>
        <ellipse cx="39.04" cy="32.492" fill="#FF4D8C" rx="21.952" ry="22.11"/>
        <path fill="#FFF" d="M45.922 40.878a1.447 1.447 0 0 1-1.052-.439L32.21 27.69a1.507 1.507 0 0 1 0-2.121 1.481 1.481 0 0 1 2.105 0l12.66 12.75c.426.43.553 1.074.323 1.635-.23.56-.774.925-1.376.925z"/>
        <path fill="#FFF" d="M33.262 40.878a1.488 1.488 0 0 1-1.375-.925 1.507 1.507 0 0 1 .322-1.634l12.66-12.73a1.481 1.481 0 0 1 2.106 0 1.507 1.507 0 0 1 0 2.121l-12.66 12.73a1.447 1.447 0 0 1-1.053.438z"/>
    </g>
</svg>
