<svg xmlns="http://www.w3.org/2000/svg" width="185" height="144" viewBox="0 0 185 144">
    <g fill="none" fill-rule="nonzero" transform="translate(-.303 -.735)">
        <path fill="#ECF3FF" d="M92.708 5.502a9.803 9.803 0 0 1 5.91-3.647c38.206-7.386 36.406 22.916 45.419 36.853 13.399 20.739 25.31-7.6 38.701 14.416 11.337 18.719-25.727 53.081-36.306 56.278-28.966 8.764-30.327-8.171-42.514-5.602-17.976 3.79-7.305 25.499-38.808 37.688-12.379 4.81-23.978 3.382-34.224-1.02-13.328-5.765-23.503-17.09-27.869-31.022a50.517 50.517 0 0 1 5.139-41.514 9229.57 9229.57 0 0 1 18.06-29.395c7.886-12.855 23.42-18.692 37.739-14.18 6.88 2.176 14.377-.187 18.798-5.923l9.92-12.932h.035z"/>
        <path fill="#4532D9" d="M111.72 97.363H58.137c-5.41-.004-9.793-4.422-9.793-9.87V31.001h73.174v56.492c0 5.451-4.388 9.87-9.8 9.87z"/>
        <path fill="#100995" d="M48.324 44.76s7.015-6.48 7.156-6.48v6.48"/>
        <path fill="#5955FF" d="M114.362 118.351H55.495c-3.95-.004-7.15-3.23-7.15-7.208v-66.49h73.174v66.49c0 3.981-3.204 7.208-7.157 7.208z"/>
        <ellipse cx="68.249" cy="57.334" fill="#4532D9" rx="3.77" ry="3.797"/>
        <ellipse cx="99.1" cy="57.334" fill="#4532D9" rx="3.77" ry="3.797"/>
        <path fill="#FFF" d="M83.73 73.82c-9.037-.008-16.362-7.383-16.374-16.486 0-.496.4-.899.893-.899s.893.403.893.9c.174 7.987 6.653 14.37 14.585 14.37 7.933 0 14.411-6.383 14.586-14.37 0-.497.4-.9.893-.9s.893.403.893.9c-.008 9.1-7.332 16.477-16.368 16.485z"/>
        <path fill="#ADB8C0" d="M54.999 44.225h-7.157"/>
        <path fill="#BBC3F5" d="M48.345 31l6.845 6.21a.873.873 0 0 1 0 1.334l-6.845 6.216V31z"/>
        <path fill="#100995" d="M121.533 44.76s-7.015-6.48-7.157-6.48v6.48"/>
        <path fill="#BBC3F5" d="M121.511 31l-6.851 6.21a.888.888 0 0 0 0 1.334l6.851 6.216V31z"/>
        <ellipse cx="126.641" cy="113.085" fill="#49EDB4" rx="21.427" ry="21.581"/>
        <path fill="#FFF" d="M124.062 121.399a1.412 1.412 0 0 1-1.027-.436l-5.817-5.852a1.47 1.47 0 0 1 0-2.07 1.446 1.446 0 0 1 2.054 0l4.79 4.818 10.416-10.49a1.446 1.446 0 0 1 2.055 0 1.47 1.47 0 0 1 0 2.069l-11.443 11.525a1.447 1.447 0 0 1-1.028.436z"/>
    </g>
</svg>
