<svg xmlns="http://www.w3.org/2000/svg" xmlns:xlink="http://www.w3.org/1999/xlink" width="69" height="23" viewBox="0 0 69 23">
    <defs>
        <path id="a" d="M0 22.87h67.752V0H0z"/>
    </defs>
    <g fill="none" fill-rule="evenodd" transform="translate(.634 .043)">
        <path fill="#FFF" d="M24.837 8.84c-1.773 0-2.055 1.525-2.055 3.116 0 1.59.282 3.115 2.055 3.115 1.773 0 2.038-1.525 2.038-3.115 0-1.591-.265-3.115-2.038-3.115m2.237 6.578c-.431.43-1.16.712-1.989.712-.894 0-1.64-.215-2.303-1.06v4.606H21.59V7.88h1.193v.96c.663-.86 1.409-1.06 2.303-1.06.829 0 1.558.282 1.989.713.828.828.994 2.187.994 3.463 0 1.276-.166 2.634-.994 3.463"/>
        <mask id="b" fill="#fff">
            <use xlink:href="#a"/>
        </mask>
        <path fill="#FFF" d="M29.957 16.032h1.193V7.88h-1.193v8.152zm.596-10.406a.813.813 0 0 1-.811-.811c0-.448.364-.812.811-.812.448 0 .829.364.829.812a.828.828 0 0 1-.829.811zM36.651 16.131c-2.055 0-3.612-1.392-3.612-4.175 0-2.784 1.557-4.176 3.612-4.176 1.127 0 1.84.299 2.684 1.21l-.812.762c-.613-.68-1.093-.911-1.872-.911-.795 0-1.458.315-1.889.928-.38.53-.53 1.16-.53 2.187s.15 1.657.53 2.187c.43.613 1.094.928 1.889.928.779 0 1.26-.249 1.872-.928l.812.778c-.845.912-1.557 1.21-2.684 1.21M46.31 16.032l-2.584-4.176-1.59 1.823v2.353h-1.193V4.234h1.193v7.887l3.678-4.241h1.491l-2.767 3.115 3.248 5.037zM57.777 16.032v-.912c-.58.663-1.392 1.011-2.303 1.011-.878 0-1.607-.265-2.104-.762-.58-.563-.828-1.342-.828-2.287V7.88h1.192v5.02c0 1.442.763 2.17 1.989 2.17s2.038-.745 2.038-2.17V7.88h1.193v8.152h-1.177zM64.521 8.84c-1.773 0-2.054 1.525-2.054 3.116 0 1.59.281 3.115 2.054 3.115 1.773 0 2.038-1.525 2.038-3.115 0-1.591-.265-3.115-2.038-3.115m2.237 6.578c-.43.43-1.16.712-1.988.712-.895 0-1.64-.215-2.303-1.06v4.606h-1.193V7.88h1.193v.96c.662-.86 1.408-1.06 2.303-1.06.828 0 1.557.282 1.988.713.828.828.994 2.187.994 3.463 0 1.276-.166 2.634-.994 3.463" mask="url(#b)"/>
        <path fill="#49EDB4" d="M9.224 5.6a3.731 3.731 0 0 0-3.727 3.727 3.731 3.731 0 0 0 3.727 3.727 3.731 3.731 0 0 0 3.727-3.727A3.731 3.731 0 0 0 9.224 5.6zm0 8.47a4.747 4.747 0 0 1-4.742-4.743 4.747 4.747 0 0 1 4.742-4.742 4.747 4.747 0 0 1 4.742 4.742 4.747 4.747 0 0 1-4.742 4.742zM8.914.512h.003-.002zM1.168 10.811s.013.077.049.221c.125.562.312 1.11.556 1.641.912 2.16 2.91 5.483 7.292 9.124a.25.25 0 0 0 .32 0c4.379-3.634 6.381-6.962 7.29-9.114.249-.532.434-1.08.56-1.642.036-.16.053-.25.054-.255.099-.515.148-1.04.148-1.562 0-2.248-.89-4.346-2.508-5.908A8.14 8.14 0 0 0 8.933 1.02c-4.1.144-7.486 3.328-7.88 7.406a8.288 8.288 0 0 0 .114 2.385zM9.222 22.87c-.288 0-.575-.098-.808-.294-4.537-3.77-6.622-7.244-7.571-9.494a9.196 9.196 0 0 1-.615-1.816 9.292 9.292 0 0 1-.185-2.939C.486 3.746 4.292.167 8.898.007a9.148 9.148 0 0 1 6.736 2.58 9.15 9.15 0 0 1 2.818 6.637 9.33 9.33 0 0 1-.166 1.749s-.02.106-.062.292a8.914 8.914 0 0 1-.622 1.83c-.945 2.239-3.033 5.718-7.57 9.483a1.27 1.27 0 0 1-.81.292z" mask="url(#b)"/>
    </g>
</svg>
