<svg xmlns="http://www.w3.org/2000/svg" xmlns:xlink="http://www.w3.org/1999/xlink" width="21" height="21" viewBox="0 0 21 21">
    <defs>
        <path id="a" d="M0 0h19.722v19.68H0z"/>
    </defs>
    <g fill="none" fill-rule="evenodd" transform="translate(.688 .434)">
        <mask id="b" fill="#fff">
            <use xlink:href="#a"/>
        </mask>
        <path fill="#FFF" d="M2.335 2.31a.66.66 0 0 1-.066.103c-.227.29-.414.62-.555.981-.13.34-.212.668-.249.996-.344 2.859 1.012 5.518 4.679 9.186 5.052 5.051 9.028 4.703 9.195 4.682a4.063 4.063 0 0 0 1.97-.803.649.649 0 0 1 .087-.059l.68-.665c.302-.303.319-.789.03-1.078l-2.825-2.827c-.288-.287-.773-.268-1.082.04l-1.424 1.423a.704.704 0 0 1-.84.12l-.287-.16c-.93-.515-2.21-1.225-3.58-2.595-1.367-1.367-2.079-2.65-2.599-3.586l-.15-.269a.706.706 0 0 1 .113-.85L6.86 5.524c.307-.308.325-.794.037-1.082L4.069 1.614c-.288-.286-.773-.269-1.081.04l-.653.657zm12.723 17.37c-1.33 0-5.25-.445-9.912-5.107C1.134 10.562-.338 7.563.064 4.227c.05-.441.159-.882.333-1.34A5.34 5.34 0 0 1 1.039 1.7a.666.666 0 0 1 .153-.243l.796-.8c.86-.861 2.241-.879 3.079-.042l2.827 2.829c.837.838.82 2.218-.037 3.077L6.807 7.57c.472.845 1.12 1.945 2.26 3.086 1.143 1.144 2.245 1.79 3.086 2.258l1.049-1.048c.857-.857 2.236-.875 3.075-.04l2.828 2.83h.001c.836.838.82 2.219-.038 3.077l-.812.796a.708.708 0 0 1-.227.15 5.492 5.492 0 0 1-2.533.982c-.07.006-.219.018-.438.018z" mask="url(#b)"/>
    </g>
</svg>
