<svg xmlns="http://www.w3.org/2000/svg" xmlns:xlink="http://www.w3.org/1999/xlink" width="14" height="16" viewBox="0 0 14 16">
    <defs>
        <path id="a" d="M0 .14h13.135v14.769H0z"/>
    </defs>
    <g fill="none" fill-rule="evenodd">
        <g transform="translate(.118 .699)">
            <mask id="b" fill="#fff">
                <use xlink:href="#a"/>
            </mask>
            <path fill="#EF1D5E" d="M11.165 12.716c0 .756-.617 1.373-1.373 1.373H3.343a1.375 1.375 0 0 1-1.373-1.373v-9.63h9.198v9.63h-.003zM4.303 1.764c0-.443.36-.804.804-.804h2.921c.443 0 .804.361.804.804v.501h-4.53v-.5zm8.422.501H9.652v-.5C9.652.868 8.924.14 8.028.14H5.107c-.896 0-1.624.729-1.624 1.624v.501H.41a.408.408 0 0 0-.41.41c0 .228.182.41.41.41h.74v9.631c0 1.209.985 2.193 2.193 2.193h6.45a2.195 2.195 0 0 0 2.191-2.193v-9.63h.741c.228 0 .41-.183.41-.41a.408.408 0 0 0-.41-.41z" mask="url(#b)"/>
        </g>
        <path fill="#EF1D5E" d="M6.686 13.318c.228 0 .41-.182.41-.41V5.664a.408.408 0 0 0-.41-.41.408.408 0 0 0-.41.41v7.241a.41.41 0 0 0 .41.413M4.011 12.866c.228 0 .41-.182.41-.41V6.113a.408.408 0 0 0-.41-.41.408.408 0 0 0-.41.41v6.343c0 .228.185.41.41.41M9.36 12.866c.229 0 .41-.182.41-.41V6.113a.408.408 0 0 0-.41-.41.408.408 0 0 0-.41.41v6.343c0 .228.183.41.41.41"/>
    </g>
</svg>
